<svg id="Standard" xmlns="http://www.w3.org/2000/svg" viewBox="0 0 247.33 91.89"><defs><style>.cls-1{fill:none;stroke:#1d1d1b;stroke-linecap:round;stroke-linejoin:round;stroke-width:0.45px;}</style></defs><title>specimen_figure_c</title><polyline class="cls-1" points="82.52 18.51 82.52 36.8 82.52 46.77 82.52 55.71 82.52 64.65 82.52 73.58 82.52 82.52"/><polyline class="cls-1" points="82.52 82.52 73.38 82.52 64.23 82.52 55.09 73.38 45.94 64.23 55.09 45.94 64.23 36.8 73.38 36.8 82.52 36.8"/><polygon class="cls-1" points="27.66 36.8 27.66 18.51 45.94 18.51 45.94 27.66 36.8 36.8 36.8 36.8 27.66 36.8"/><line class="cls-1" x1="36.8" y1="36.8" x2="36.8" y2="82.52"/><line class="cls-1" x1="27.66" y1="82.52" x2="45.94" y2="82.52"/><polygon class="cls-1" points="173.96 55.09 155.67 18.51 164.81 27.66 173.96 36.8 173.96 55.09"/><polyline class="cls-1" points="164.81 36.8 155.67 64.23 164.81 82.52"/><line class="cls-1" x1="155.67" y1="91.66" x2="164.81" y2="82.52"/><polyline class="cls-1" points="18.51 18.51 9.37 18.51 0.23 27.66 0.23 82.52"/><line class="cls-1" x1="0.22" y1="45.94" x2="18.51" y2="45.94"/><polyline class="cls-1" points="91.66 55.09 119.09 55.09 119.09 45.94 109.95 9.37 100.81 36.8 91.66 45.94 91.66 73.38 100.81 91.66 109.95 82.52 119.09 73.38"/><polyline class="cls-1" points="73.38 91.66 146.53 36.8 146.53 18.51 128.24 0.23 128.24 73.38 137.38 82.52 146.53 73.38"/><polygon class="cls-1" points="183.1 45.94 201.39 36.8 237.96 0.23 201.39 55.09 247.11 91.66 173.96 82.52 183.1 45.94"/></svg>